<?xml version="1.0" standalone="no"?>
<!DOCTYPE svg PUBLIC "-//W3C//DTD SVG 20010904//EN"
 "http://www.w3.org/TR/2001/REC-SVG-20010904/DTD/svg10.dtd">
<svg version="1.0" xmlns="http://www.w3.org/2000/svg"
 width="48.000000pt" height="48.000000pt" viewBox="0 0 48.000000 48.000000"
 preserveAspectRatio="xMidYMid meet">

<g transform="translate(0.000000,48.000000) scale(0.100000,-0.100000)"
fill="#000000" stroke="none">
<path d="M145 433 c-54 -28 -105 -88 -105 -123 0 -20 76 -11 96 11 27 30 68
49 106 49 36 0 95 -31 104 -55 7 -18 94 -21 94 -4 0 26 -46 83 -89 110 -38 25
-55 29 -110 29 -40 -1 -78 -7 -96 -17z"/>
<path d="M30 220 c0 -107 92 -190 208 -190 112 0 200 75 210 179 l5 51 -40 0
c-39 0 -41 -1 -47 -39 -13 -83 -105 -131 -182 -95 -42 20 -74 66 -74 107 0 25
-3 27 -40 27 l-40 0 0 -40z"/>
</g>
</svg>
